<?xml version="1.0" encoding="iso-8859-1"?>
<!-- Generator: Adobe Illustrator 19.0.0, SVG Export Plug-In . SVG Version: 6.00 Build 0)  -->
<svg version="1.1" id="Capa_1" xmlns="http://www.w3.org/2000/svg" xmlns:xlink="http://www.w3.org/1999/xlink" x="0px" y="0px"
	 viewBox="0 0 512 512" style="enable-background:new 0 0 512 512;" xml:space="preserve">
<path style="fill:#91CECE;" d="M273.356,347.119H39.051c-19.17,0-34.712-15.542-34.712-34.712V34.712
	C4.339,15.542,19.881,0,39.051,0h433.898c19.17,0,34.712,15.542,34.712,34.712v277.695c0,19.17-15.542,34.712-34.712,34.712l0,0"/>
<path style="fill:#83B2B7;" d="M13.503,335.733c6.526,7.237,15.803,11.368,25.548,11.385h433.898
	c19.17,0,34.712-15.542,34.712-34.712V56.98C418.66,210.875,125.362,304.77,13.503,335.733z"/>
<circle style="fill:#FFD33F;" cx="256" cy="251.661" r="60.746"/>
<path style="fill:#FFAC3E;" d="M294.383,204.6c21.131,26.06,17.139,64.312-8.921,85.443c-22.302,18.085-54.22,18.085-76.522,0
	c21.131,26.06,59.383,30.052,85.443,8.921c26.06-21.131,30.052-59.383,8.921-85.443C300.648,210.241,297.654,207.256,294.383,204.6z
	"/>
<g>
	<path style="fill:#FFD33F;" d="M464.271,282.962c17.2-28.802,7.784-66.1-21.018-83.3c-28.802-17.2-66.1-7.784-83.3,21.018
		c-0.955,1.605-1.84,3.254-2.647,4.938"/>
	<circle style="fill:#FFD33F;" cx="256" cy="95.458" r="60.746"/>
	<circle style="fill:#FFD33F;" cx="99.797" cy="95.458" r="60.746"/>
	<circle style="fill:#FFD33F;" cx="412.203" cy="95.458" r="60.746"/>
	<circle style="fill:#FFD33F;" cx="99.797" cy="251.661" r="60.746"/>
</g>
<g>
	<rect x="82.441" y="60.746" style="fill:#874D1B;" width="17.356" height="17.356"/>
	<rect x="117.153" y="86.78" style="fill:#874D1B;" width="17.356" height="17.356"/>
	<rect x="247.322" y="60.746" style="fill:#874D1B;" width="17.356" height="17.356"/>
	<rect x="229.966" y="112.814" style="fill:#874D1B;" width="17.356" height="17.356"/>
	<rect x="65.085" y="234.305" style="fill:#874D1B;" width="17.356" height="17.356"/>
	<rect x="108.475" y="260.339" style="fill:#874D1B;" width="17.356" height="17.356"/>
	<rect x="99.797" y="216.949" style="fill:#874D1B;" width="17.356" height="17.356"/>
	<rect x="264.678" y="234.305" style="fill:#874D1B;" width="17.356" height="17.356"/>
	<rect x="238.644" y="260.339" style="fill:#874D1B;" width="17.356" height="17.356"/>
	<rect x="377.492" y="95.458" style="fill:#874D1B;" width="17.356" height="17.356"/>
	<rect x="420.881" y="104.136" style="fill:#874D1B;" width="17.356" height="17.356"/>
	<rect x="403.525" y="60.746" style="fill:#874D1B;" width="17.356" height="17.356"/>
	<rect x="420.881" y="216.949" style="fill:#874D1B;" width="17.356" height="17.356"/>
	<rect x="229.966" y="216.949" style="fill:#874D1B;" width="17.356" height="17.356"/>
	<rect x="73.763" y="104.136" style="fill:#874D1B;" width="17.356" height="17.356"/>
	<rect x="273.356" y="95.458" style="fill:#874D1B;" width="17.356" height="17.356"/>
</g>
<g>
	<path style="fill:#383856;" d="M39.051,512c-4.79,0-8.678-3.888-8.669-8.687c0-1.345,0.312-2.673,0.911-3.87l4.339-8.678
		c6.942-13.954,6.942-30.356,0-44.31c-9.364-18.84-9.364-40.986,0-59.826l4.339-8.678c2.143-4.287,7.359-6.031,11.646-3.888
		c4.287,2.143,6.031,7.359,3.888,11.646l0,0l-4.339,8.678c-6.942,13.954-6.942,30.356,0,44.31c9.364,18.84,9.364,40.986,0,59.826
		l-4.339,8.678C45.351,510.143,42.34,512.009,39.051,512z"/>
	<path style="fill:#383856;" d="M143.186,512c-4.79,0-8.678-3.888-8.669-8.687c0-1.345,0.312-2.673,0.911-3.87l4.339-8.678
		c6.942-13.954,6.942-30.356,0-44.31c-9.364-18.84-9.364-40.986,0-59.826l4.339-8.678c2.143-4.287,7.359-6.031,11.646-3.888
		c4.287,2.143,6.031,7.359,3.888,11.646l-4.339,8.678c-6.942,13.954-6.942,30.356,0,44.31c9.364,18.84,9.364,40.986,0,59.826
		l-4.339,8.678C149.487,510.143,146.475,512.009,143.186,512z"/>
	<path style="fill:#383856;" d="M91.119,512c-4.79,0-8.678-3.888-8.669-8.687c0-1.345,0.312-2.673,0.911-3.87l4.339-8.678
		c6.942-13.954,6.942-30.356,0-44.31c-9.364-18.84-9.364-40.986,0-59.826l4.339-8.678c2.143-4.287,7.359-6.031,11.646-3.888
		c4.287,2.143,6.031,7.359,3.888,11.646l0,0l-4.339,8.678c-6.942,13.954-6.942,30.356,0,44.31c9.364,18.84,9.364,40.986,0,59.826
		l-4.339,8.678C97.419,510.143,94.408,512.009,91.119,512z"/>
</g>
<g>
	<path style="fill:#FFAC3E;" d="M294.383,48.397c21.131,26.06,17.139,64.312-8.921,85.443c-22.302,18.085-54.22,18.085-76.522,0
		c21.131,26.06,59.383,30.052,85.443,8.921c26.06-21.131,30.052-59.383,8.921-85.443C300.648,54.038,297.654,51.052,294.383,48.397z
		"/>
	<path style="fill:#FFAC3E;" d="M138.179,48.397c21.131,26.06,17.139,64.312-8.921,85.443c-22.302,18.085-54.22,18.085-76.522,0
		c21.131,26.06,59.383,30.052,85.443,8.921s30.052-59.383,8.921-85.443C144.445,54.038,141.451,51.052,138.179,48.397z"/>
	<path style="fill:#FFAC3E;" d="M450.586,48.397c21.131,26.06,17.139,64.312-8.921,85.443c-22.302,18.085-54.22,18.085-76.522,0
		c21.131,26.06,59.383,30.052,85.443,8.921c26.06-21.131,30.052-59.383,8.921-85.443C456.852,54.038,453.858,51.052,450.586,48.397z
		"/>
	<path style="fill:#FFAC3E;" d="M138.179,204.6c21.131,26.06,17.139,64.312-8.921,85.443c-22.302,18.085-54.22,18.085-76.522,0
		c21.131,26.06,59.383,30.052,85.443,8.921s30.052-59.383,8.921-85.443C144.445,210.241,141.451,207.256,138.179,204.6z"/>
	<path style="fill:#FFAC3E;" d="M450.586,204.6c17.044,20.853,18.284,50.454,3.063,72.669l10.622,5.693
		C479.822,257.076,473.991,223.683,450.586,204.6z"/>
</g>
<path style="fill:#EA3836;" d="M472.949,341.044v-15.62c0-55.114-44.683-99.797-99.797-99.797s-99.797,44.683-99.797,99.797v65.085
	l-15.247-15.247c-14.188-14.562-37.506-14.865-52.068-0.677c-14.562,14.188-14.865,37.506-0.677,52.068
	c0.226,0.226,0.451,0.451,0.677,0.677l56.407,56.407C307.287,476.117,438.168,445.093,472.949,341.044z"/>
<path style="fill:#D62121;" d="M262.474,483.762l2.204,2.204v17.356h208.271V341.044
	C438.168,445.093,307.287,476.117,262.474,483.762z"/>
<g>
</g>
<g>
</g>
<g>
</g>
<g>
</g>
<g>
</g>
<g>
</g>
<g>
</g>
<g>
</g>
<g>
</g>
<g>
</g>
<g>
</g>
<g>
</g>
<g>
</g>
<g>
</g>
<g>
</g>
</svg>
